<?xml version="1.0" encoding="utf-8"?>
<!-- Generator: Adobe Illustrator 16.2.0, SVG Export Plug-In . SVG Version: 6.00 Build 0)  -->
<!DOCTYPE svg PUBLIC "-//W3C//DTD SVG 1.1//EN" "http://www.w3.org/Graphics/SVG/1.1/DTD/svg11.dtd">
<svg version="1.1" id="Layer_3" xmlns="http://www.w3.org/2000/svg" xmlns:xlink="http://www.w3.org/1999/xlink" x="0px" y="0px"
	 width="35px" height="35px" viewBox="0 32.143 35 35" enable-background="new 0 32.143 35 35" xml:space="preserve">
<g>
	<g>
		<path fill="#00446D" d="M8.352,49.744"/>
		<path fill="#FFFFFF" d="M11.847,55.851c-0.189,0-0.429-0.107-0.584-0.261l-4.679-4.679l-4.679,4.681
			c-0.153,0.151-0.394,0.259-0.583,0.259s-0.43-0.107-0.585-0.261c-0.33-0.332-0.331-0.834,0.002-1.166l4.681-4.68l-4.68-4.679
			c-0.162-0.162-0.25-0.369-0.25-0.583c0-0.215,0.089-0.422,0.25-0.583c0.162-0.162,0.369-0.25,0.583-0.25
			c0.214,0,0.421,0.089,0.583,0.25l4.679,4.68l4.681-4.68c0.161-0.162,0.368-0.25,0.582-0.25s0.421,0.089,0.583,0.25
			c0.162,0.162,0.251,0.369,0.251,0.583c0,0.215-0.089,0.422-0.25,0.583l-4.68,4.679l4.68,4.68c0.162,0.161,0.251,0.368,0.251,0.583
			s-0.089,0.423-0.251,0.586C12.277,55.743,12.037,55.851,11.847,55.851z"/>
	</g>
</g>
<g>
	<path fill="#13293D" d="M17.207,66.992C7.702,66.992,0,59.289,0,49.789c0-9.503,7.702-17.206,17.207-17.206
		c9.502,0,17.205,7.702,17.205,17.206C34.412,59.289,26.709,66.992,17.207,66.992L17.207,66.992z M29.667,47.916L19.078,37.329
		c-1.034-1.034-2.709-1.034-3.744,0c-1.034,1.035-1.034,2.71,0,3.744l6.07,6.071H6.617c-1.46,0-2.645,1.183-2.645,2.646
		c0,1.461,1.185,2.647,2.645,2.647h14.787l-6.07,6.07c-1.034,1.033-1.034,2.709,0,3.743c0.517,0.516,1.194,0.774,1.873,0.774
		c0.677,0,1.354-0.259,1.871-0.774l10.588-10.589C30.699,50.626,30.699,48.952,29.667,47.916L29.667,47.916z M29.667,47.916"/>
</g>
</svg>
