<?xml version="1.0" encoding="utf-8"?>
<!-- Generator: Adobe Illustrator 16.2.0, SVG Export Plug-In . SVG Version: 6.00 Build 0)  -->
<!DOCTYPE svg PUBLIC "-//W3C//DTD SVG 1.1//EN" "http://www.w3.org/Graphics/SVG/1.1/DTD/svg11.dtd">
<svg version="1.1" id="Layer_1" xmlns="http://www.w3.org/2000/svg" xmlns:xlink="http://www.w3.org/1999/xlink" x="0px" y="0px"
	 width="143.2px" height="29.6px" viewBox="0 0 143.2 29.6" enable-background="new 0 0 143.2 29.6" xml:space="preserve">
<g>
	<path fill="#048AAB" d="M139.081,25.183c0,1.294-1.05,2.346-2.345,2.346H6.155c-1.294,0-2.345-1.052-2.345-2.346v-7.594
		c0-14.295,8.287-15.457,15.833-15.457h117.096c1.294,0,2.344,1.052,2.344,2.347L139.081,25.183L139.081,25.183z"/>
	<path fill="#FFFFFF" d="M24.58,16.184c-0.395-0.505-0.813-0.892-1.247-1.163c-0.449-0.26-0.692-0.404-0.735-0.434
		c0.178-0.082,0.438-0.256,0.774-0.53c0.331-0.261,0.655-0.675,0.983-1.248c0.272-0.476,0.41-1.04,0.41-1.698
		c0-0.107-0.007-0.222-0.021-0.343c-0.124-1.64-0.744-2.716-1.862-3.235c-1.132-0.516-2.707-0.773-4.723-0.773h-4.908v16.42
		l6.706,0.039c1.039,0,1.979-0.203,2.827-0.614c0.826-0.396,1.467-0.974,1.92-1.737c0.365-0.641,0.551-1.396,0.551-2.269
		c0-0.165-0.007-0.327-0.02-0.49C25.182,17.341,24.964,16.703,24.58,16.184z M17.361,9.929h1.004c0.601,0,1.082,0.095,1.453,0.283
		c0.352,0.19,0.558,0.586,0.615,1.188c0,0.065,0,0.132,0,0.199c0,0.479-0.179,0.86-0.535,1.149c-0.422,0.324-0.92,0.488-1.491,0.488
		h-1.046V9.929z M20.921,18.233c0,0.513-0.171,0.909-0.513,1.183c-0.379,0.299-0.993,0.449-1.838,0.449h-1.208v-3.436h1.046
		c0.83,0,1.457,0.123,1.881,0.369c0.409,0.26,0.62,0.697,0.632,1.309C20.921,18.148,20.921,18.189,20.921,18.233z"/>
	<polygon fill="#FFFFFF" points="30.634,16.953 34.904,16.953 37.491,13.315 30.674,13.315 30.674,10.718 36.566,10.718 
		39.486,6.759 26.441,6.759 26.441,23.216 35.593,23.216 38.331,19.578 30.634,19.578 	"/>
	<polygon fill="#FFFFFF" points="40.943,6.759 38.167,10.729 43.477,10.729 43.477,23.261 47.712,23.28 47.712,10.729 51.82,10.729 
		51.829,6.759 	"/>
	<g>
		<path fill="#FFC72B" d="M60.195,23.269l-6.737-0.041V6.731h4.931c2.027,0,3.608,0.259,4.746,0.776
			c1.123,0.521,1.746,1.605,1.869,3.25c0.014,0.121,0.021,0.236,0.021,0.347c0,0.659-0.139,1.228-0.411,1.706
			c-0.328,0.574-0.658,0.992-0.989,1.254c-0.341,0.273-0.6,0.451-0.777,0.531c0.041,0.031,0.287,0.176,0.737,0.437
			c0.438,0.271,0.856,0.661,1.254,1.17c0.386,0.521,0.604,1.164,0.658,1.931c0.013,0.164,0.019,0.328,0.019,0.49
			c0,0.877-0.184,1.637-0.552,2.282c-0.455,0.767-1.098,1.349-1.93,1.747C62.186,23.062,61.238,23.269,60.195,23.269z M58.596,9.917
			h-1.01v3.323h1.051c0.572,0,1.073-0.163,1.497-0.491c0.358-0.287,0.538-0.673,0.538-1.152c0-0.066,0-0.135,0-0.2
			c-0.059-0.604-0.263-1.004-0.617-1.194C59.684,10.011,59.195,9.917,58.596,9.917z M58.637,16.446h-1.051v3.451h1.215
			c0.85,0,1.465-0.149,1.846-0.452c0.345-0.273,0.518-0.67,0.518-1.188c0-0.045,0-0.086,0-0.125
			c-0.016-0.616-0.227-1.055-0.639-1.314C60.102,16.57,59.471,16.446,58.637,16.446z"/>
		<path fill="#FFC72B" d="M76.016,16.121l5.045,6.971l-5.252,0.019l-4.644-7.112v7.139l-4.374-0.008V6.731h5.137
			c4.313,0,6.573,1.608,6.78,4.823c0.015,0.14,0.021,0.269,0.021,0.393C78.729,13.729,77.823,15.121,76.016,16.121z M71.165,14.395
			h0.968c0.752,0,1.328-0.233,1.727-0.702c0.371-0.426,0.557-0.911,0.557-1.46c0-0.04,0-0.081,0-0.12
			c-0.059-1.438-0.846-2.156-2.367-2.156h-0.883L71.165,14.395L71.165,14.395z"/>
		<path fill="#FFC72B" d="M81.943,23.126V6.615h4.233v16.508L81.943,23.126z"/>
		<path fill="#FFC72B" d="M99.637,11.455c-1.007-0.82-2.15-1.232-3.428-1.232c-0.066,0-0.135,0-0.206,0
			c-0.752,0.015-1.457,0.246-2.114,0.697c-0.656,0.453-1.186,1.033-1.582,1.746c-0.397,0.729-0.597,1.481-0.597,2.262
			c0,1.384,0.46,2.533,1.379,3.451c0.902,0.933,2.06,1.397,3.472,1.397c0.385,0,0.863-0.062,1.439-0.187
			c0.573-0.123,0.883-0.205,0.922-0.244v-2.467h-3.33l2.499-3.412h5.083v8.548c-0.052,0.057-0.4,0.228-1.048,0.517
			c-0.657,0.287-1.493,0.555-2.507,0.799c-1.014,0.246-2.076,0.37-3.186,0.37c-1.682,0-3.215-0.392-4.601-1.169
			c-1.396-0.783-2.485-1.844-3.265-3.186c-0.769-1.316-1.154-2.748-1.154-4.293c0-0.03,0-0.061,0-0.086
			c0.027-1.588,0.42-3.032,1.174-4.334c0.74-1.301,1.773-2.342,3.102-3.125c1.313-0.766,2.767-1.154,4.358-1.168
			c0.039,0,0.08,0,0.119,0c1.769,0,3.167,0.274,4.194,0.822c0.656,0.36,1.203,0.699,1.639,1.021
			C101.167,9.322,100.482,10.27,99.637,11.455z"/>
		<path fill="#FFC72B" d="M114.427,23.136v-6.485h-5.217v6.483h-4.418V6.625l4.418,0.01v6.195h5.217V6.625l4.439,0.01v16.502
			H114.427z"/>
		<path fill="#FFC72B" d="M132.855,10.718h-4.129v12.418h-4.254V10.718h-4.082l-0.012-4.094h12.477V10.718L132.855,10.718z"/>
	</g>
</g>
</svg>
