<?xml version="1.0" encoding="utf-8"?>
<!-- Generator: Adobe Illustrator 16.2.0, SVG Export Plug-In . SVG Version: 6.00 Build 0)  -->
<!DOCTYPE svg PUBLIC "-//W3C//DTD SVG 1.1//EN" "http://www.w3.org/Graphics/SVG/1.1/DTD/svg11.dtd">
<svg version="1.1" id="Layer_3" xmlns="http://www.w3.org/2000/svg" xmlns:xlink="http://www.w3.org/1999/xlink" x="0px" y="0px"
	 width="13.121px" height="13.285px" viewBox="0 43 13.121 13.285" enable-background="new 0 43 13.121 13.285"
	 xml:space="preserve">
<g>
	<g>
		<path fill="#00446D" d="M8.352,49.744"/>
		<path fill="#FFFFFF" d="M11.847,55.851c-0.189,0-0.429-0.107-0.584-0.261l-4.679-4.679l-4.679,4.681
			c-0.153,0.151-0.394,0.259-0.583,0.259s-0.43-0.107-0.585-0.261c-0.33-0.332-0.331-0.834,0.002-1.166l4.681-4.68l-4.68-4.679
			c-0.162-0.162-0.25-0.369-0.25-0.583c0-0.215,0.089-0.422,0.25-0.583c0.162-0.162,0.369-0.25,0.583-0.25
			c0.214,0,0.421,0.089,0.583,0.25l4.679,4.68l4.681-4.68c0.161-0.162,0.368-0.25,0.582-0.25s0.421,0.089,0.583,0.25
			c0.162,0.162,0.251,0.369,0.251,0.583c0,0.215-0.089,0.422-0.25,0.583l-4.68,4.679l4.68,4.68c0.162,0.161,0.251,0.368,0.251,0.583
			s-0.089,0.423-0.251,0.586C12.277,55.743,12.037,55.851,11.847,55.851z"/>
	</g>
</g>
</svg>
