<?xml version="1.0" encoding="utf-8"?>
<!-- Generator: Adobe Illustrator 16.2.0, SVG Export Plug-In . SVG Version: 6.00 Build 0)  -->
<!DOCTYPE svg PUBLIC "-//W3C//DTD SVG 1.1//EN" "http://www.w3.org/Graphics/SVG/1.1/DTD/svg11.dtd">
<svg version="1.1" id="Layer_1" xmlns="http://www.w3.org/2000/svg" xmlns:xlink="http://www.w3.org/1999/xlink" x="0px" y="0px"
	 width="29.338px" height="28.262px" viewBox="0 -2.135 29.338 28.262" enable-background="new 0 -2.135 29.338 28.262"
	 xml:space="preserve">
<path fill="#FFFFFF" d="M26.128,16.362c0.596,0.297,0.893,0.803,0.893,1.518v5.758v1.026c0,0.447-0.133,0.834-0.4,1.161
	c-0.269,0.327-0.611,0.491-1.027,0.491H3.675c-0.387,0-0.714-0.164-0.982-0.491c-0.268-0.327-0.402-0.714-0.402-1.161v-1.026V17.88
	c0-0.715,0.297-1.221,0.893-1.518l6.16-2.857l2.411-1.116c-1.131-0.685-1.994-1.667-2.589-2.946
	C8.601,8.312,8.318,7.107,8.318,5.827c0-0.387,0.03-0.759,0.089-1.116c0.06-0.357,0.134-0.699,0.223-1.027
	c0.417-1.518,1.168-2.768,2.254-3.75c1.086-0.982,2.344-1.473,3.772-1.473c1.458,0,2.737,0.506,3.839,1.518s1.846,2.292,2.232,3.839
	c0.148,0.744,0.223,1.414,0.223,2.009c0,1.19-0.238,2.336-0.714,3.437c-0.595,1.339-1.458,2.351-2.589,3.036l2.544,1.205
	L26.128,16.362L26.128,16.362z"/>
</svg>
