<?xml version="1.0" encoding="utf-8"?>
<!-- Generator: Adobe Illustrator 16.2.0, SVG Export Plug-In . SVG Version: 6.00 Build 0)  -->
<!DOCTYPE svg PUBLIC "-//W3C//DTD SVG 1.1//EN" "http://www.w3.org/Graphics/SVG/1.1/DTD/svg11.dtd">
<svg version="1.1" id="Capa_1" xmlns="http://www.w3.org/2000/svg" xmlns:xlink="http://www.w3.org/1999/xlink" x="0px" y="0px"
	 width="20px" height="18px" viewBox="4.55 2.437 20 18" enable-background="new 4.55 2.437 20 18" xml:space="preserve">
<path fill="#FFFFFF" d="M23.496,2.932H5.494c-0.458,0-0.831,0.372-0.831,0.832v12.639c0,0.458,0.372,0.831,0.831,0.831h9.98
	l3.827,2.861c0.516,0.385,0.942,0.172,0.942-0.473v-2.389h3.252c0.458,0,0.832-0.373,0.832-0.831V3.762
	C24.328,3.304,23.954,2.932,23.496,2.932z M9.961,11.269c-0.71,0-1.286-0.575-1.286-1.285c0-0.71,0.576-1.286,1.286-1.286
	s1.285,0.576,1.285,1.286C11.246,10.694,10.671,11.269,9.961,11.269z M14.496,11.269c-0.71,0-1.286-0.575-1.286-1.285
	c0-0.71,0.576-1.286,1.286-1.286s1.286,0.576,1.286,1.286C15.782,10.694,15.207,11.269,14.496,11.269z M19.031,11.269
	c-0.709,0-1.285-0.575-1.285-1.285c0-0.71,0.576-1.286,1.285-1.286c0.711,0,1.288,0.576,1.288,1.286
	C20.319,10.694,19.741,11.269,19.031,11.269z"/>
</svg>
