<?xml version="1.0" encoding="utf-8"?>
<!-- Generator: Adobe Illustrator 16.2.0, SVG Export Plug-In . SVG Version: 6.00 Build 0)  -->
<!DOCTYPE svg PUBLIC "-//W3C//DTD SVG 1.1//EN" "http://www.w3.org/Graphics/SVG/1.1/DTD/svg11.dtd">
<svg version="1.1" id="Capa_1" xmlns="http://www.w3.org/2000/svg" xmlns:xlink="http://www.w3.org/1999/xlink" x="0px" y="0px"
	 width="28.945px" height="29.998px" viewBox="0 0 28.945 29.998" enable-background="new 0 0 28.945 29.998" xml:space="preserve">
<g>
	<path fill="#092745" d="M27.341,13.783h-2.99h-0.398c-0.885,0-1.602,0.717-1.602,1.604v0.174c0,0.887,0.717,1.604,1.603,1.604
		h2.991h0.396c0.885,0,1.604-0.719,1.604-1.604l-0.002-0.177C28.945,14.5,28.226,13.783,27.341,13.783z"/>
	<path fill="#092745" d="M27.343,9.783h-0.707V2.027C26.636,0.912,25.724,0,24.609,0H11.236c-1.114,0-2.026,0.912-2.026,2.027v5.565
		c-2.698,1.525-5.48,3.118-5.486,3.122C2.213,11.335,0,13.341,0,18.077c0,0.423,0.027,0.814,0.066,1.191
		c0.013,0.109,0.026,0.217,0.041,0.322c0.039,0.277,0.088,0.542,0.146,0.794c0.021,0.089,0.037,0.183,0.06,0.269
		c0.078,0.293,0.169,0.565,0.271,0.824c0.051,0.129,0.106,0.248,0.163,0.369c0.06,0.127,0.12,0.25,0.185,0.368
		c0.075,0.14,0.15,0.276,0.232,0.405c0.02,0.029,0.041,0.058,0.061,0.088c1.951,2.948,5.549,2.962,5.549,2.962h2.435v2.304
		c0,1.112,0.912,2.024,2.026,2.024h13.373c1.115,0,2.027-0.912,2.027-2.024v-2.81h0.309v-0.002h0.396
		c0.887,0,1.604-0.718,1.604-1.604l0.002-0.174c-0.003-0.886-0.72-1.601-1.604-1.601h-0.396h-2.594h-0.398
		c-0.887,0-1.602,0.717-1.602,1.602v0.179c0,0.883,0.717,1.602,1.603,1.602h1.272v1.085H10.619V11.697
		c0.733-0.465,1.413-0.913,1.801-1.213c1.963-1.518,3.826-2.727,4.078-3.824c0.328-1.422-0.765-2.621-2.658-1.637
		c-0.597,0.31-1.822,0.989-3.221,1.775V3.212l14.606,0.002v6.568h-0.875v0.002h-0.396c-0.886,0-1.604,0.717-1.604,1.604v0.174
		c0,0.887,0.719,1.602,1.603,1.602h0.397h2.594h0.398c0.885,0,1.602-0.717,1.602-1.602v-0.178
		C28.945,10.502,28.228,9.783,27.343,9.783z M17.921,26.961c0.561,0,1.014,0.453,1.014,1.015c0,0.561-0.453,1.012-1.014,1.012
		c-0.56,0-1.012-0.452-1.012-1.014C16.91,27.416,17.363,26.961,17.921,26.961z M20.062,1.951h-4.278
		c-0.136,0-0.246-0.109-0.246-0.244c0-0.137,0.11-0.246,0.246-0.246h4.278c0.135,0,0.244,0.109,0.244,0.246
		C20.306,1.842,20.197,1.951,20.062,1.951z"/>
	<path fill="#092745" d="M27.341,17.783h-0.396h-2.992c-0.884,0-1.603,0.719-1.603,1.604v0.176c0,0.885,0.717,1.602,1.603,1.602
		h0.397h2.594h0.396c0.887,0,1.602-0.717,1.604-1.602l-0.001-0.176C28.943,18.502,28.228,17.783,27.341,17.783z"/>
</g>
</svg>
