<?xml version="1.0" encoding="utf-8"?>
<!-- Generator: Adobe Illustrator 16.2.0, SVG Export Plug-In . SVG Version: 6.00 Build 0)  -->
<!DOCTYPE svg PUBLIC "-//W3C//DTD SVG 1.1//EN" "http://www.w3.org/Graphics/SVG/1.1/DTD/svg11.dtd">
<svg version="1.1" id="Capa_1" xmlns="http://www.w3.org/2000/svg" xmlns:xlink="http://www.w3.org/1999/xlink" x="0px" y="0px"
	 width="44px" height="44px" viewBox="0 -7.001 44 44" enable-background="new 0 -7.001 44 44" xml:space="preserve">
<g>
	<path fill="#939EA9" d="M39.805,13.393h-4.353h-0.581c-1.287,0-2.332,1.044-2.332,2.335v0.254c0,1.291,1.045,2.335,2.334,2.335
		h4.354h0.577c1.288,0,2.335-1.047,2.335-2.335l-0.003-0.257C42.14,14.437,41.093,13.393,39.805,13.393z"/>
	<path fill="#939EA9" d="M39.808,7.569h-1.029V-3.723c0-1.623-1.328-2.951-2.952-2.951H16.358c-1.623,0-2.95,1.328-2.95,2.951v8.101
		C9.479,6.6,5.428,8.918,5.42,8.924C3.222,9.829,0,12.749,0,19.645c0,0.615,0.04,1.186,0.097,1.734
		c0.018,0.159,0.039,0.315,0.06,0.469c0.057,0.404,0.127,0.789,0.213,1.156c0.03,0.13,0.054,0.266,0.087,0.391
		c0.114,0.426,0.246,0.823,0.395,1.2c0.074,0.188,0.155,0.36,0.237,0.537c0.086,0.185,0.175,0.364,0.269,0.536
		c0.109,0.203,0.219,0.402,0.338,0.591c0.029,0.042,0.06,0.083,0.088,0.128c2.841,4.292,8.079,4.312,8.079,4.312h3.544v3.354
		c0,1.62,1.328,2.947,2.95,2.947h19.469c1.624,0,2.952-1.327,2.952-2.947v-4.09h0.449v-0.003h0.576c1.291,0,2.336-1.045,2.334-2.336
		l0.003-0.253c-0.004-1.29-1.048-2.331-2.336-2.331h-0.577h-3.775h-0.581c-1.291,0-2.332,1.044-2.332,2.332v0.261
		c0,1.285,1.045,2.331,2.334,2.331h1.852v1.58H15.46V10.356c1.067-0.678,2.058-1.33,2.622-1.767c2.857-2.21,5.57-3.97,5.938-5.566
		c0.477-2.071-1.114-3.816-3.87-2.383c-0.869,0.451-2.653,1.44-4.689,2.583v-5.221l21.265,0.003v9.563h-1.272v0.003h-0.578
		c-1.289,0-2.336,1.043-2.336,2.335v0.253c0,1.292,1.047,2.333,2.333,2.333h0.578h3.777h0.58c1.288,0,2.331-1.044,2.331-2.333v-0.26
		C42.14,8.616,41.096,7.569,39.808,7.569z M26.091,32.578c0.815,0,1.476,0.659,1.476,1.478c0,0.815-0.66,1.473-1.476,1.473
		c-0.814,0-1.473-0.658-1.473-1.477C24.619,33.241,25.278,32.578,26.091,32.578z M29.208-3.833h-6.229
		c-0.197,0-0.358-0.16-0.358-0.356c0-0.199,0.161-0.358,0.358-0.358h6.229c0.195,0,0.354,0.159,0.354,0.358
		C29.563-3.993,29.404-3.833,29.208-3.833z"/>
	<path fill="#939EA9" d="M39.805,19.216h-0.577h-4.356c-1.286,0-2.333,1.047-2.333,2.336v0.257c0,1.288,1.044,2.331,2.333,2.331
		h0.578h3.777h0.577c1.291,0,2.331-1.043,2.334-2.331l-0.001-0.257C42.137,20.263,41.096,19.216,39.805,19.216z"/>
</g>
</svg>
